<svg width="44" height="77" viewBox="0 0 44 77" fill="none" xmlns="http://www.w3.org/2000/svg">
<g clip-path="url(#clip0_2_3339)">
<path d="M29.4547 39.8356C30.3057 40.0616 31.1836 40.1703 32.064 40.1589V48.5867C32.0372 48.9427 31.8876 49.2782 31.6407 49.536C31.3938 49.7937 31.0651 49.9577 30.7106 49.9998H29.1624C28.7642 49.9563 28.3968 49.7654 28.1323 49.4646C27.8678 49.1637 27.7255 48.7748 27.7333 48.3743V39.1843C28.2925 39.4383 28.8675 39.6558 29.4547 39.8356ZM27.7333 38.0885C26.4791 37.4492 25.3559 36.5804 24.4219 35.5271C23.483 34.5042 22.9171 33.1941 22.8158 31.8092C22.7734 30.6334 23.0507 29.468 23.6181 28.4372C24.1025 27.6459 24.7686 26.9816 25.5613 26.4995C26.354 26.0173 27.2502 25.7313 28.1756 25.6651C28.2216 25.6651 28.2679 25.6659 28.3144 25.6674C29.7063 25.7134 33.0696 26.0262 36.0903 30.0264C35.927 30.0326 35.7641 30.0471 35.6022 30.0699C34.7918 30.2063 34.0193 30.5123 33.3354 30.9679C32.6515 31.4236 32.0716 32.0186 31.6337 32.714C30.7952 34.0085 30.3648 35.5249 30.3983 37.0668C30.4063 37.2947 30.4351 37.5213 30.4842 37.7439C30.5966 38.2344 30.7999 38.6996 31.0835 39.1152C30.6309 39.0819 30.1828 39.0028 29.7461 38.879C29.0545 38.6717 28.3812 38.4073 27.7333 38.0885ZM28.7989 31.7555C28.992 31.8881 29.2249 31.9501 29.4583 31.931C29.6918 31.9119 29.9115 31.8129 30.0804 31.6506L30.1384 31.5782C30.2447 31.4653 30.3227 31.3288 30.3661 31.1799C30.4095 31.0311 30.4172 30.874 30.3884 30.7217C30.3596 30.5693 30.2951 30.4259 30.2004 30.3032C30.1056 30.1804 29.9832 30.0818 29.843 30.0154L28.333 29.0436C28.1226 28.8969 27.8689 28.8251 27.6128 28.84C27.3566 28.8548 27.1129 28.9553 26.9208 29.1253L26.8359 29.2077C26.7479 29.3154 26.6841 29.4407 26.6487 29.5752C26.6134 29.7096 26.6074 29.8501 26.6311 29.9871C26.6548 30.1241 26.7077 30.2544 26.7862 30.3692C26.8646 30.484 26.9669 30.5805 27.0859 30.6523L28.7989 31.7555ZM40.5334 35.951C40.4946 36.1529 40.4421 36.352 40.3763 36.5467C40.2156 37.0089 40.002 37.451 39.7399 37.8641C39.4253 38.4193 39.0243 38.9208 38.5519 39.3498C38.1631 39.7364 37.6995 40.0397 37.1896 40.2411C36.6796 40.4425 36.1339 40.5379 35.5858 40.5213C34.9565 40.5227 34.3316 40.4162 33.7382 40.2064C33.664 40.1717 33.6059 40.1374 33.5361 40.1028C33.2543 39.9655 32.9813 39.8108 32.7186 39.6396C32.5004 39.4975 32.295 39.3365 32.1048 39.1584C32.0904 39.1447 32.078 39.1309 32.0641 39.1171C31.6331 38.6949 31.3369 38.1545 31.2127 37.5641C31.1822 37.4288 31.1618 37.2914 31.1519 37.153C30.9953 35.3309 32.0896 31.4296 35.7285 30.8089C35.9568 30.7688 36.1881 30.748 36.4198 30.7468C36.4872 30.7468 36.5588 30.7579 36.628 30.7621C36.8933 30.7741 37.1557 30.822 37.408 30.9045C37.4554 30.921 37.4969 30.9479 37.5434 30.9657C37.7911 31.0582 38.0309 31.1705 38.2604 31.3015C38.9998 31.7278 39.6105 32.3456 40.0282 33.0898C40.2925 33.5785 40.4725 34.1082 40.5605 34.6566C40.6205 35.0868 40.6114 35.5238 40.5334 35.951ZM39.2297 35.171C39.081 34.6823 38.5179 34.693 38.1673 35.171L36.4249 37.5724C36.1582 38.0717 36.36 38.6774 36.8275 38.6348H36.8286C37.5627 38.416 38.2004 37.9537 38.6368 37.3242C39.0732 36.6947 39.2823 35.9354 39.2297 35.1712V35.171ZM11.7797 40.1587V48.5865C11.8065 48.9425 11.9561 49.2781 12.203 49.5359C12.4499 49.7937 12.7787 49.9577 13.1332 49.9998H14.6813C15.0795 49.9564 15.447 49.7654 15.7115 49.4646C15.976 49.1637 16.1183 48.7748 16.1104 48.3743V39.1843C15.5513 39.4381 14.9763 39.6555 14.3891 39.8352C13.5381 40.0613 12.6603 40.1702 11.7798 40.1589L11.7797 40.1587ZM20.2254 28.437C20.7929 29.4678 21.0701 30.6332 21.0277 31.809C20.9266 33.1939 20.3608 34.5041 19.4219 35.5271C18.488 36.5805 17.3648 37.4493 16.1106 38.0885C15.4627 38.4072 14.7894 38.6714 14.0977 38.8785C13.6602 39.0024 13.2112 39.0816 12.7577 39.1148C13.0429 38.6997 13.2471 38.2344 13.3594 37.7434C13.4086 37.5208 13.4374 37.2942 13.4453 37.0663C13.4788 35.5246 13.0484 34.0083 12.2099 32.714C11.7721 32.0187 11.1923 31.4237 10.5084 30.968C9.82463 30.5123 9.05226 30.2062 8.24193 30.0698C8.08007 30.0471 7.91716 30.0325 7.75383 30.0263C10.7745 26.0263 14.1378 25.7133 15.5297 25.6673C15.5764 25.6658 15.6223 25.665 15.6685 25.665C16.5938 25.7313 17.49 26.0174 18.2826 26.4996C19.0751 26.9817 19.7412 27.646 20.2255 28.4372L20.2254 28.437ZM17.0081 29.207L16.9232 29.1246C16.7311 28.9546 16.4874 28.8541 16.2313 28.8393C15.9751 28.8244 15.7215 28.8962 15.511 29.0429L14.001 30.0147C13.8609 30.0812 13.7385 30.1797 13.6437 30.3025C13.5489 30.4252 13.4845 30.5686 13.4557 30.721C13.4269 30.8733 13.4345 31.0303 13.4779 31.1792C13.5213 31.3281 13.5993 31.4646 13.7055 31.5775L13.7636 31.6499C13.9326 31.8122 14.1523 31.9112 14.3857 31.9303C14.6192 31.9494 14.8521 31.8874 15.0451 31.7548L16.7589 30.6516C16.8778 30.5798 16.9799 30.4832 17.0582 30.3684C17.1366 30.2537 17.1893 30.1235 17.213 29.9866C17.2366 29.8497 17.2306 29.7093 17.1952 29.5749C17.1599 29.4405 17.0961 29.3153 17.0082 29.2077L17.0081 29.207ZM11.7797 39.117C11.7658 39.1308 11.7534 39.1445 11.739 39.1582C11.5489 39.3363 11.3435 39.4973 11.1252 39.6394C10.8625 39.8106 10.5895 39.9653 10.3076 40.1026C10.2376 40.1372 10.1798 40.1715 10.1056 40.2062C9.51228 40.416 8.88736 40.5225 8.25803 40.5211C7.70998 40.5377 7.16432 40.4423 6.65435 40.241C6.14438 40.0396 5.6808 39.7364 5.29193 39.3498C4.8195 38.9207 4.41844 38.4191 4.10383 37.8638C3.84172 37.4507 3.62817 37.0086 3.46743 36.5464C3.4016 36.3517 3.34911 36.1526 3.31033 35.9507C3.23236 35.5234 3.22321 35.0864 3.28323 34.6562C3.37136 34.1079 3.55135 33.5783 3.81563 33.0898C4.23346 32.3456 4.84432 31.7279 5.58383 31.3018C5.81319 31.1709 6.05277 31.0587 6.30023 30.9663C6.34703 30.9484 6.38873 30.9214 6.43623 30.9048C6.68859 30.8223 6.95098 30.7744 7.21623 30.7624C7.28543 30.7582 7.35703 30.7471 7.42443 30.7471C7.6562 30.7483 7.88745 30.7691 8.11573 30.8092C11.7546 31.4299 12.8489 35.3312 12.6923 37.1533C12.6824 37.2917 12.6621 37.4291 12.6315 37.5644C12.5073 38.1549 12.2109 38.6953 11.7798 39.1175L11.7797 39.117ZM7.41893 37.5724L5.67653 35.1712C5.32593 34.6932 4.76283 34.6825 4.61413 35.1712C4.56372 35.5458 4.58849 35.9266 4.687 36.2915C4.7855 36.6563 4.95576 36.9979 5.18783 37.2961C5.3845 37.6325 5.64818 37.9249 5.96253 38.1552C6.27688 38.3855 6.63518 38.5488 7.01523 38.6348H7.01623C7.48383 38.6774 7.68563 38.0717 7.41893 37.5724Z" fill="#1D1D1F"/>
</g>
<path d="M0.885782 73H1.9932L2.84281 70.5801H6.20609L7.0557 73H8.16313L5.04594 64.5449H4.00297L0.885782 73ZM4.47758 65.9102H4.57133L5.89555 69.6836H3.15336L4.47758 65.9102ZM9.9357 65.4648C10.3224 65.4648 10.6388 65.1484 10.6388 64.7617C10.6388 64.375 10.3224 64.0586 9.9357 64.0586C9.54899 64.0586 9.23258 64.375 9.23258 64.7617C9.23258 65.1484 9.54899 65.4648 9.9357 65.4648ZM9.42008 73H10.4396V66.6836H9.42008V73ZM12.2415 73H13.261V69.0859C13.261 68.1602 13.9524 67.5449 14.9251 67.5449C15.1477 67.5449 15.3411 67.5684 15.552 67.6035V66.6133C15.4524 66.5957 15.2356 66.5723 15.0423 66.5723C14.1868 66.5723 13.595 66.959 13.3548 67.6211H13.261V66.6836H12.2415V73ZM16.8207 73H17.8754V69.9824H20.0082C21.5961 69.9824 22.7211 68.8633 22.7211 67.2578V67.2461C22.7211 65.6406 21.5961 64.5449 20.0082 64.5449H16.8207V73ZM19.7387 65.4824C20.9457 65.4824 21.643 66.1445 21.643 67.2578V67.2695C21.643 68.3828 20.9457 69.0449 19.7387 69.0449H17.8754V65.4824H19.7387ZM26.6206 73.1113C28.4195 73.1113 29.5327 71.8691 29.5327 69.8477V69.8359C29.5327 67.8086 28.4195 66.5723 26.6206 66.5723C24.8218 66.5723 23.7085 67.8086 23.7085 69.8359V69.8477C23.7085 71.8691 24.8218 73.1113 26.6206 73.1113ZM26.6206 72.209C25.4253 72.209 24.7515 71.3359 24.7515 69.8477V69.8359C24.7515 68.3418 25.4253 67.4746 26.6206 67.4746C27.8159 67.4746 28.4898 68.3418 28.4898 69.8359V69.8477C28.4898 71.3359 27.8159 72.209 26.6206 72.209ZM33.3268 73.1113C34.2057 73.1113 34.9088 72.6953 35.2955 71.9922H35.3893V73H36.4088V64.1758H35.3893V67.6797H35.2955C34.9498 67.0059 34.194 66.5723 33.3268 66.5723C31.7213 66.5723 30.6784 67.8555 30.6784 69.8359V69.8477C30.6784 71.8164 31.7272 73.1113 33.3268 73.1113ZM33.5612 72.209C32.4069 72.209 31.7213 71.3184 31.7213 69.8477V69.8359C31.7213 68.3652 32.4069 67.4746 33.5612 67.4746C34.7096 67.4746 35.4127 68.377 35.4127 69.8359V69.8477C35.4127 71.3066 34.7096 72.209 33.5612 72.209ZM40.4138 73.1113C41.8494 73.1113 42.9451 72.332 42.9451 71.207V71.1953C42.9451 70.293 42.3709 69.7773 41.1814 69.4902L40.2087 69.2559C39.4646 69.0742 39.1482 68.8047 39.1482 68.377V68.3652C39.1482 67.8086 39.699 67.4219 40.449 67.4219C41.2107 67.4219 41.7029 67.7676 41.8377 68.2656H42.8396C42.699 67.2344 41.7791 66.5723 40.4548 66.5723C39.113 66.5723 38.1052 67.3633 38.1052 68.4121V68.418C38.1052 69.3262 38.6384 69.8418 39.822 70.123L40.8005 70.3574C41.5798 70.5449 41.9021 70.8438 41.9021 71.2715V71.2832C41.9021 71.8574 41.2986 72.2617 40.449 72.2617C39.6404 72.2617 39.1365 71.916 38.9666 71.3887H37.9236C38.0408 72.4316 39.0076 73.1113 40.4138 73.1113Z" fill="#1D1D1F"/>
<defs>
<clipPath id="clip0_2_3339">
<rect width="39" height="54" fill="white" transform="translate(2.42188)"/>
</clipPath>
</defs>
</svg>
