<svg width="36" height="77" viewBox="0 0 36 77" fill="none" xmlns="http://www.w3.org/2000/svg">
<g clip-path="url(#clip0_2_3345)">
<path d="M18.125 22.5C15.4055 22.5 12.7471 23.3064 10.4859 24.8173C8.22474 26.3282 6.46237 28.4756 5.42166 30.9881C4.38096 33.5006 4.10866 36.2653 4.63921 38.9325C5.16976 41.5997 6.47932 44.0497 8.40229 45.9727C10.3253 47.8957 12.7753 49.2053 15.4425 49.7358C18.1098 50.2663 20.8744 49.994 23.3869 48.9533C25.8994 47.9126 28.0468 46.1503 29.5577 43.8891C31.0686 41.6279 31.875 38.9695 31.875 36.25C31.875 32.6033 30.4263 29.1059 27.8477 26.5273C25.2691 23.9487 21.7717 22.5 18.125 22.5ZM18.125 48.35C15.7319 48.35 13.3924 47.6403 11.4026 46.3108C9.41277 44.9812 7.86188 43.0915 6.94606 40.8805C6.03024 38.6695 5.79062 36.2366 6.2575 33.8894C6.72439 31.5422 7.8768 29.3862 9.56901 27.694C11.2612 26.0018 13.4172 24.8494 15.7644 24.3825C18.1116 23.9156 20.5445 24.1552 22.7555 25.0711C24.9665 25.9869 26.8562 27.5378 28.1858 29.5276C29.5154 31.5174 30.225 33.8568 30.225 36.25C30.2213 39.458 28.9453 42.5335 26.6769 44.8019C24.4085 47.0703 21.333 48.3463 18.125 48.35ZM18.125 25.25C15.9494 25.25 13.8227 25.8951 12.0137 27.1038C10.2048 28.3125 8.7949 30.0305 7.96233 32.0405C7.12977 34.0505 6.91193 36.2622 7.33637 38.396C7.76081 40.5298 8.80845 42.4898 10.3468 44.0282C11.8852 45.5666 13.8452 46.6142 15.979 47.0386C18.1128 47.4631 20.3245 47.2452 22.3345 46.4127C24.3445 45.5801 26.0625 44.1702 27.2712 42.3613C28.4799 40.5523 29.125 38.4256 29.125 36.25C29.125 34.8055 28.8405 33.3751 28.2877 32.0405C27.7349 30.7059 26.9246 29.4933 25.9032 28.4718C24.8817 27.4504 23.6691 26.6401 22.3345 26.0873C20.9999 25.5345 19.5695 25.25 18.125 25.25ZM18.599 31.506C18.7646 31.3037 18.9711 31.1386 19.205 31.0216C19.4388 30.9046 19.6948 30.8383 19.956 30.827C19.9773 31.0896 19.9454 31.3538 19.8622 31.6038C19.779 31.8538 19.6463 32.0845 19.472 32.282C19.3204 32.4993 19.1168 32.6752 18.8798 32.7936C18.6427 32.9121 18.3798 32.9693 18.115 32.96C18.0903 32.6973 18.1206 32.4324 18.2039 32.182C18.2872 31.9317 18.4218 31.7015 18.599 31.506ZM21.253 38.984C20.877 39.558 20.446 40.136 19.811 40.136C19.211 40.136 19.003 39.748 18.306 39.748C17.557 39.748 17.33 40.136 16.757 40.136C16.122 40.136 15.688 39.527 15.291 38.959C14.6951 38.0579 14.3632 37.0079 14.333 35.928C14.3062 35.3453 14.4405 34.7665 14.721 34.255C14.9171 33.9079 15.1976 33.616 15.5366 33.4062C15.8755 33.1965 16.2619 33.0757 16.66 33.055C17.269 33.034 17.791 33.491 18.16 33.491C18.7454 33.2992 19.3449 33.1534 19.953 33.055C20.2908 33.0538 20.6236 33.1375 20.9206 33.2984C21.2177 33.4593 21.4695 33.6923 21.653 33.976C21.3469 34.1693 21.0942 34.4362 20.9179 34.7524C20.7416 35.0686 20.6474 35.424 20.644 35.786C20.6546 36.1847 20.7777 36.5722 20.9993 36.9039C21.2209 37.2355 21.5317 37.4976 21.896 37.66C21.7514 38.1319 21.5345 38.5786 21.253 38.984Z" fill="#1D1D1F"/>
</g>
<path d="M1.29453 73H2.40195L3.25156 70.5801H6.61484L7.46445 73H8.57187L5.45469 64.5449H4.41172L1.29453 73ZM4.88633 65.9102H4.98008L6.3043 69.6836H3.56211L4.88633 65.9102ZM10.3445 65.4648C10.7312 65.4648 11.0476 65.1484 11.0476 64.7617C11.0476 64.375 10.7312 64.0586 10.3445 64.0586C9.95773 64.0586 9.64133 64.375 9.64133 64.7617C9.64133 65.1484 9.95773 65.4648 10.3445 65.4648ZM9.82883 73H10.8484V66.6836H9.82883V73ZM12.6502 73H13.6698V69.0859C13.6698 68.1602 14.3612 67.5449 15.3338 67.5449C15.5565 67.5449 15.7498 67.5684 15.9608 67.6035V66.6133C15.8612 66.5957 15.6444 66.5723 15.451 66.5723C14.5955 66.5723 14.0037 66.959 13.7635 67.6211H13.6698V66.6836H12.6502V73ZM18.7822 73H19.8369V65.4941H22.5615V64.5449H16.0576V65.4941H18.7822V73ZM24.4454 73.1113C25.295 73.1113 25.9571 72.7422 26.3555 72.0684H26.4493V73H27.4688V68.6758C27.4688 67.3633 26.6075 66.5723 25.0665 66.5723C23.7188 66.5723 22.7579 67.2402 22.5938 68.2305L22.588 68.2656H23.6075L23.6134 68.248C23.7774 67.7559 24.2755 67.4746 25.0313 67.4746C25.9747 67.4746 26.4493 67.8965 26.4493 68.6758V69.25L24.6388 69.3613C23.168 69.4492 22.336 70.0996 22.336 71.2246V71.2363C22.336 72.3848 23.2442 73.1113 24.4454 73.1113ZM23.379 71.2129V71.2012C23.379 70.5742 23.8009 70.2344 24.7618 70.1758L26.4493 70.0703V70.6445C26.4493 71.5469 25.6934 72.2266 24.6563 72.2266C23.9239 72.2266 23.379 71.8516 23.379 71.2129ZM31.8137 75.2266C33.5363 75.2266 34.6262 74.3242 34.6262 72.9121V66.6836H33.6066V67.7266H33.5363C33.1496 67.0117 32.4582 66.5723 31.5676 66.5723C29.9152 66.5723 28.8957 67.8555 28.8957 69.625V69.6367C28.8957 71.4062 29.9094 72.6719 31.5441 72.6719C32.4113 72.6719 33.1262 72.2793 33.5246 71.582H33.6184V72.8594C33.6184 73.791 32.9445 74.3242 31.8137 74.3242C30.9055 74.3242 30.343 73.9844 30.2316 73.5039L30.2258 73.498H29.1711L29.1594 73.5039C29.3176 74.541 30.2902 75.2266 31.8137 75.2266ZM31.7668 71.7695C30.5949 71.7695 29.9387 70.8906 29.9387 69.6367V69.625C29.9387 68.3711 30.5949 67.4746 31.7668 67.4746C32.9328 67.4746 33.6418 68.3711 33.6418 69.625V69.6367C33.6418 70.8906 32.9387 71.7695 31.7668 71.7695Z" fill="#1D1D1F"/>
<defs>
<clipPath id="clip0_2_3345">
<rect width="29" height="54" fill="white" transform="translate(3.625)"/>
</clipPath>
</defs>
</svg>
