<svg width="62" height="77" viewBox="0 0 62 77" fill="none" xmlns="http://www.w3.org/2000/svg">
<g clip-path="url(#clip0_2_3358)">
<path d="M45.0781 24H17.0781C14.8681 24 13.0781 25.79 13.0781 28V46C13.0781 48.21 14.8681 50 17.0781 50H45.0781C47.2881 50 49.0781 48.21 49.0781 46V28C49.0781 25.79 47.2881 24 45.0781 24ZM20.3681 27.45C20.6381 27.13 21.0481 26.92 21.4181 26.92C21.4381 27.34 21.3181 27.71 21.0481 28.01C20.8081 28.33 20.3781 28.62 19.9981 28.57C19.9081 28.15 20.1481 27.72 20.3681 27.45ZM22.4081 33.15C22.1181 33.59 21.7781 34.08 21.2881 34.08C20.8281 34.08 20.6481 33.77 20.1081 33.77C19.5381 33.77 19.3681 34.08 18.9281 34.08C18.4381 34.08 18.1181 33.59 17.8081 33.15C17.4081 32.58 17.0781 31.65 17.0681 30.79C17.0581 30.33 17.1581 29.93 17.3781 29.55C17.6881 29.02 18.2581 28.63 18.8681 28.62C19.3381 28.6 19.7581 28.93 20.0481 28.93C20.3181 28.93 20.8381 28.63 21.4081 28.62C21.7781 28.61 22.2981 28.73 22.7081 29.36C22.6781 29.38 21.8981 29.78 21.8981 30.71C21.9381 31.77 22.8781 32.15 22.8881 32.15C22.8881 32.18 22.7681 32.64 22.4081 33.15Z" fill="#1D1D1F"/>
</g>
<path d="M0.634142 73H1.74156L2.59117 70.5801H5.95445L6.80406 73H7.91149L4.7943 64.5449H3.75133L0.634142 73ZM4.22594 65.9102H4.31969L5.64391 69.6836H2.90172L4.22594 65.9102ZM9.145 75.1094H10.1645V72.0039H10.2583C10.604 72.6777 11.3598 73.1113 12.227 73.1113C13.8325 73.1113 14.8755 71.8281 14.8755 69.8477V69.8359C14.8755 67.8672 13.8266 66.5723 12.227 66.5723C11.3481 66.5723 10.645 66.9883 10.2583 67.6914H10.1645V66.6836H9.145V75.1094ZM11.9927 72.209C10.8442 72.209 10.1411 71.3066 10.1411 69.8477V69.8359C10.1411 68.377 10.8442 67.4746 11.9927 67.4746C13.147 67.4746 13.8325 68.3652 13.8325 69.8359V69.8477C13.8325 71.3184 13.147 72.209 11.9927 72.209ZM16.3492 75.1094H17.3688V72.0039H17.4625C17.8082 72.6777 18.5641 73.1113 19.4313 73.1113C21.0367 73.1113 22.0797 71.8281 22.0797 69.8477V69.8359C22.0797 67.8672 21.0309 66.5723 19.4313 66.5723C18.5523 66.5723 17.8492 66.9883 17.4625 67.6914H17.3688V66.6836H16.3492V75.1094ZM19.1969 72.209C18.0484 72.209 17.3453 71.3066 17.3453 69.8477V69.8359C17.3453 68.377 18.0484 67.4746 19.1969 67.4746C20.3512 67.4746 21.0367 68.3652 21.0367 69.8359V69.8477C21.0367 71.3184 20.3512 72.209 19.1969 72.209ZM23.612 73H24.6316V64.1758H23.612V73ZM29.0467 73.1113C30.535 73.1113 31.4373 72.2676 31.6541 71.4121L31.6659 71.3652H30.6463L30.6229 71.418C30.453 71.7988 29.9256 72.2031 29.0702 72.2031C27.9452 72.2031 27.2245 71.4414 27.1952 70.1348H31.742V69.7363C31.742 67.8496 30.6991 66.5723 28.9823 66.5723C27.2655 66.5723 26.1522 67.9082 26.1522 69.8594V69.8652C26.1522 71.8457 27.242 73.1113 29.0467 73.1113ZM28.9764 67.4805C29.908 67.4805 30.5995 68.0723 30.7049 69.3203H27.2127C27.3241 68.1191 28.0389 67.4805 28.9764 67.4805ZM39.9923 73.1992C41.7911 73.1992 43.127 72.1973 43.4083 70.6504V70.6387H42.3419L42.3302 70.6504C42.0665 71.623 41.17 72.2266 39.9923 72.2266C38.3634 72.2266 37.3438 70.8965 37.3438 68.7812V68.7695C37.3438 66.6543 38.3634 65.3184 39.9864 65.3184C41.1524 65.3184 42.0548 66.0039 42.336 67.0879L42.3419 67.0996H43.4024L43.4083 67.0879C43.1563 65.4648 41.7677 64.3457 39.9864 64.3457C37.6895 64.3457 36.2598 66.0449 36.2598 68.7695V68.7812C36.2598 71.5 37.6954 73.1992 39.9923 73.1992ZM46.6633 73.1113C47.5129 73.1113 48.175 72.7422 48.5734 72.0684H48.6672V73H49.6867V68.6758C49.6867 67.3633 48.8254 66.5723 47.2844 66.5723C45.9367 66.5723 44.9758 67.2402 44.8117 68.2305L44.8059 68.2656H45.8254L45.8313 68.248C45.9953 67.7559 46.4934 67.4746 47.2492 67.4746C48.1926 67.4746 48.6672 67.8965 48.6672 68.6758V69.25L46.8566 69.3613C45.3859 69.4492 44.5539 70.0996 44.5539 71.2246V71.2363C44.5539 72.3848 45.4621 73.1113 46.6633 73.1113ZM45.5969 71.2129V71.2012C45.5969 70.5742 46.0188 70.2344 46.9797 70.1758L48.6672 70.0703V70.6445C48.6672 71.5469 47.9113 72.2266 46.8742 72.2266C46.1418 72.2266 45.5969 71.8516 45.5969 71.2129ZM51.43 73H52.4495V69.0859C52.4495 68.1602 53.1409 67.5449 54.1136 67.5449C54.3363 67.5449 54.5296 67.5684 54.7405 67.6035V66.6133C54.6409 66.5957 54.4241 66.5723 54.2308 66.5723C53.3753 66.5723 52.7835 66.959 52.5433 67.6211H52.4495V66.6836H51.43V73ZM58.0366 73.1113C58.9155 73.1113 59.6186 72.6953 60.0053 71.9922H60.0991V73H61.1186V64.1758H60.0991V67.6797H60.0053C59.6596 67.0059 58.9037 66.5723 58.0366 66.5723C56.4311 66.5723 55.3881 67.8555 55.3881 69.8359V69.8477C55.3881 71.8164 56.437 73.1113 58.0366 73.1113ZM58.2709 72.209C57.1166 72.209 56.4311 71.3184 56.4311 69.8477V69.8359C56.4311 68.3652 57.1166 67.4746 58.2709 67.4746C59.4194 67.4746 60.1225 68.377 60.1225 69.8359V69.8477C60.1225 71.3066 59.4194 72.209 58.2709 72.209Z" fill="#1D1D1F"/>
<defs>
<clipPath id="clip0_2_3358">
<rect width="36" height="54" fill="white" transform="translate(13.0781)"/>
</clipPath>
</defs>
</svg>
