<svg width="56" height="77" viewBox="0 0 56 77" fill="none" xmlns="http://www.w3.org/2000/svg">
<g clip-path="url(#clip0_2_3320)">
<path d="M34.6406 10H21.6406C20.8457 10.0024 20.084 10.3192 19.5219 10.8813C18.9598 11.4434 18.643 12.2051 18.6406 13V47C18.643 47.7949 18.9598 48.5566 19.5219 49.1187C20.084 49.6808 20.8457 49.9976 21.6406 50H34.6406C35.4355 49.9976 36.1972 49.6808 36.7593 49.1187C37.3214 48.5566 37.6383 47.7949 37.6406 47V13C37.6383 12.2051 37.3214 11.4434 36.7593 10.8813C36.1972 10.3192 35.4355 10.0024 34.6406 10ZM25.8906 12.25H30.3906C30.4569 12.25 30.5205 12.2763 30.5674 12.3232C30.6143 12.3701 30.6406 12.4337 30.6406 12.5C30.6406 12.5663 30.6143 12.6299 30.5674 12.6768C30.5205 12.7237 30.4569 12.75 30.3906 12.75H25.8906C25.8243 12.75 25.7607 12.7237 25.7138 12.6768C25.667 12.6299 25.6406 12.5663 25.6406 12.5C25.6406 12.4337 25.667 12.3701 25.7138 12.3232C25.7607 12.2763 25.8243 12.25 25.8906 12.25ZM24.1406 12.125C24.2148 12.125 24.2873 12.147 24.349 12.1882C24.4106 12.2294 24.4587 12.288 24.4871 12.3565C24.5155 12.425 24.5229 12.5004 24.5084 12.5732C24.4939 12.6459 24.4582 12.7127 24.4058 12.7652C24.3533 12.8176 24.2865 12.8533 24.2138 12.8678C24.141 12.8823 24.0656 12.8748 23.9971 12.8465C23.9286 12.8181 23.87 12.77 23.8288 12.7083C23.7876 12.6467 23.7656 12.5742 23.7656 12.5C23.7656 12.4005 23.8051 12.3052 23.8755 12.2348C23.9458 12.1645 24.0412 12.125 24.1406 12.125ZM28.1406 49.25C27.7945 49.25 27.4562 49.1474 27.1684 48.9551C26.8806 48.7628 26.6563 48.4895 26.5238 48.1697C26.3914 47.8499 26.3567 47.4981 26.4243 47.1586C26.4918 46.8191 26.6584 46.5073 26.9032 46.2626C27.1479 46.0178 27.4598 45.8512 27.7992 45.7836C28.1387 45.7161 28.4906 45.7508 28.8103 45.8832C29.1301 46.0157 29.4034 46.24 29.5957 46.5278C29.788 46.8155 29.8906 47.1539 29.8906 47.5C29.8906 47.9641 29.7063 48.4092 29.3781 48.7374C29.0499 49.0656 28.6048 49.25 28.1406 49.25ZM36.6406 45H19.6406V15H36.6406V45Z" fill="#1D1D1F"/>
<path d="M28.1406 48.625C28.7619 48.625 29.2656 48.1213 29.2656 47.5C29.2656 46.8787 28.7619 46.375 28.1406 46.375C27.5193 46.375 27.0156 46.8787 27.0156 47.5C27.0156 48.1213 27.5193 48.625 28.1406 48.625Z" fill="#1D1D1F"/>
</g>
<path d="M1.81437 65.4648C2.20109 65.4648 2.5175 65.1484 2.5175 64.7617C2.5175 64.375 2.20109 64.0586 1.81437 64.0586C1.42766 64.0586 1.11125 64.375 1.11125 64.7617C1.11125 65.1484 1.42766 65.4648 1.81437 65.4648ZM1.29875 73H2.31828V66.6836H1.29875V73ZM4.24906 73H5.30375V69.9824H7.43656C9.02445 69.9824 10.1495 68.8633 10.1495 67.2578V67.2461C10.1495 65.6406 9.02445 64.5449 7.43656 64.5449H4.24906V73ZM7.16703 65.4824C8.37406 65.4824 9.07133 66.1445 9.07133 67.2578V67.2695C9.07133 68.3828 8.37406 69.0449 7.16703 69.0449H5.30375V65.4824H7.16703ZM11.6877 73H12.7072V69.2617C12.7072 68.1543 13.3459 67.4746 14.3537 67.4746C15.3615 67.4746 15.8302 68.0195 15.8302 69.1562V73H16.8498V68.9102C16.8498 67.4102 16.0588 66.5723 14.6408 66.5723C13.7091 66.5723 13.1173 66.9648 12.8009 67.6328H12.7072V64.1758H11.6877V73ZM21.1712 73.1113C22.97 73.1113 24.0833 71.8691 24.0833 69.8477V69.8359C24.0833 67.8086 22.97 66.5723 21.1712 66.5723C19.3723 66.5723 18.2591 67.8086 18.2591 69.8359V69.8477C18.2591 71.8691 19.3723 73.1113 21.1712 73.1113ZM21.1712 72.209C19.9759 72.209 19.302 71.3359 19.302 69.8477V69.8359C19.302 68.3418 19.9759 67.4746 21.1712 67.4746C22.3665 67.4746 23.0403 68.3418 23.0403 69.8359V69.8477C23.0403 71.3359 22.3665 72.209 21.1712 72.209ZM25.5453 73H26.5648V69.2617C26.5648 68.1543 27.2035 67.4746 28.2113 67.4746C29.2191 67.4746 29.6879 68.0195 29.6879 69.1562V73H30.7074V68.9102C30.7074 67.4102 29.9164 66.5723 28.4984 66.5723C27.5668 66.5723 26.975 66.9648 26.6586 67.6328H26.5648V66.6836H25.5453V73ZM35.0112 73.1113C36.4995 73.1113 37.4019 72.2676 37.6187 71.4121L37.6304 71.3652H36.6109L36.5874 71.418C36.4175 71.7988 35.8902 72.2031 35.0347 72.2031C33.9097 72.2031 33.189 71.4414 33.1597 70.1348H37.7066V69.7363C37.7066 67.8496 36.6636 66.5723 34.9468 66.5723C33.23 66.5723 32.1167 67.9082 32.1167 69.8594V69.8652C32.1167 71.8457 33.2066 73.1113 35.0112 73.1113ZM34.9409 67.4805C35.8726 67.4805 36.564 68.0723 36.6695 69.3203H33.1773C33.2886 68.1191 34.0034 67.4805 34.9409 67.4805ZM45.324 73.1992C47.2107 73.1992 48.447 72.2148 48.447 70.6328V70.627C48.447 69.4082 47.7498 68.6992 45.9861 68.3066L45.0486 68.0957C43.9002 67.8438 43.4373 67.3867 43.4373 66.7129V66.707C43.4373 65.8223 44.2517 65.3242 45.3064 65.3184C46.408 65.3125 47.1111 65.8633 47.2283 66.6074L47.24 66.6836H48.2947L48.2888 66.6016C48.2009 65.3418 47.0232 64.3457 45.3357 64.3457C43.5896 64.3457 42.365 65.3359 42.3591 66.7363V66.7422C42.3591 67.9668 43.0916 68.7461 44.7849 69.1211L45.7224 69.3262C46.8826 69.584 47.3689 70.0645 47.3689 70.7676V70.7734C47.3689 71.6348 46.531 72.2266 45.3826 72.2266C44.1638 72.2266 43.2849 71.6934 43.2087 70.8496L43.2029 70.7852H42.1482L42.1541 70.8496C42.2771 72.2266 43.4724 73.1992 45.324 73.1992ZM50.0848 73H55.3231V72.0508H51.1395V69.1445H55.1063V68.207H51.1395V65.4941H55.3231V64.5449H50.0848V73Z" fill="#1D1D1F"/>
<defs>
<clipPath id="clip0_2_3320">
<rect width="19" height="54" fill="white" transform="translate(18.6406)"/>
</clipPath>
</defs>
</svg>
