<svg width="55" height="77" viewBox="0 0 55 77" fill="none" xmlns="http://www.w3.org/2000/svg">
<g clip-path="url(#clip0_2_3327)">
<path d="M35.25 6H19.25C18.4544 6 17.6913 6.31607 17.1287 6.87868C16.5661 7.44129 16.25 8.20435 16.25 9V47C16.25 47.7957 16.5661 48.5587 17.1287 49.1213C17.6913 49.6839 18.4544 50 19.25 50H35.25C36.0456 50 36.8087 49.6839 37.3713 49.1213C37.9339 48.5587 38.25 47.7957 38.25 47V9C38.25 8.20435 37.9339 7.44129 37.3713 6.87868C36.8087 6.31607 36.0456 6 35.25 6ZM37.25 47C37.2494 47.5302 37.0385 48.0386 36.6635 48.4135C36.2886 48.7885 35.7802 48.9994 35.25 49H19.25C18.7198 48.9994 18.2114 48.7885 17.8365 48.4135C17.4615 48.0386 17.2506 47.5302 17.25 47V9C17.2506 8.46975 17.4615 7.9614 17.8365 7.58646C18.2114 7.21152 18.7198 7.00061 19.25 7H21.875C22 6.99565 22.1217 7.04105 22.2132 7.12625C22.3048 7.21145 22.3589 7.3295 22.3636 7.4545V8.0709C22.372 8.32302 22.4792 8.56174 22.662 8.73555C22.8448 8.90936 23.0887 9.00434 23.3409 9H31.1591C31.4113 9.00434 31.6551 8.90936 31.838 8.73555C32.0208 8.56174 32.128 8.32302 32.1364 8.0709V7.4545C32.1411 7.3295 32.1952 7.21145 32.2868 7.12625C32.3783 7.04105 32.5 6.99565 32.625 7H35.25C35.7802 7.00061 36.2886 7.21152 36.6635 7.58646C37.0385 7.9614 37.2494 8.46975 37.25 9V47ZM30.003 7.5057C30.0023 7.57005 29.9825 7.63274 29.9462 7.68588C29.9099 7.73902 29.8587 7.78024 29.799 7.80435C29.7394 7.82845 29.6739 7.83437 29.6109 7.82136C29.5478 7.80835 29.4901 7.77699 29.4448 7.73122C29.3996 7.68545 29.3689 7.62732 29.3566 7.56415C29.3443 7.50098 29.351 7.43559 29.3758 7.37621C29.4006 7.31682 29.4424 7.2661 29.496 7.23042C29.5495 7.19474 29.6124 7.1757 29.6768 7.1757C29.7199 7.17595 29.7625 7.18468 29.8022 7.2014C29.8419 7.21812 29.878 7.2425 29.9082 7.27314C29.9385 7.30378 29.9625 7.34009 29.9788 7.38C29.995 7.4199 30.0033 7.46261 30.003 7.5057ZM28.8563 7.5057C28.8565 7.53834 28.8503 7.5707 28.8379 7.60093C28.8256 7.63117 28.8075 7.65868 28.7845 7.68189C28.7616 7.70511 28.7343 7.72358 28.7042 7.73624C28.6741 7.7489 28.6418 7.75552 28.6092 7.7557H26.6322C26.5659 7.7557 26.5023 7.72936 26.4554 7.68248C26.4085 7.63559 26.3822 7.572 26.3822 7.5057C26.3822 7.4394 26.4085 7.37581 26.4554 7.32892C26.5023 7.28204 26.5659 7.2557 26.6322 7.2557H28.6092C28.6751 7.2561 28.7382 7.28266 28.7845 7.32954C28.8309 7.37642 28.8567 7.43978 28.8563 7.5057Z" fill="#1D1D1F"/>
</g>
<path d="M1.92766 65.4648C2.31437 65.4648 2.63078 65.1484 2.63078 64.7617C2.63078 64.375 2.31437 64.0586 1.92766 64.0586C1.54094 64.0586 1.22453 64.375 1.22453 64.7617C1.22453 65.1484 1.54094 65.4648 1.92766 65.4648ZM1.41203 73H2.43156V66.6836H1.41203V73ZM4.36234 73H5.41703V69.9824H7.54984C9.13773 69.9824 10.2627 68.8633 10.2627 67.2578V67.2461C10.2627 65.6406 9.13773 64.5449 7.54984 64.5449H4.36234V73ZM7.28031 65.4824C8.48734 65.4824 9.18461 66.1445 9.18461 67.2578V67.2695C9.18461 68.3828 8.48734 69.0449 7.28031 69.0449H5.41703V65.4824H7.28031ZM11.8009 73H12.8205V69.2617C12.8205 68.1543 13.4591 67.4746 14.467 67.4746C15.4748 67.4746 15.9435 68.0195 15.9435 69.1562V73H16.963V68.9102C16.963 67.4102 16.172 66.5723 14.7541 66.5723C13.8224 66.5723 13.2306 66.9648 12.9142 67.6328H12.8205V64.1758H11.8009V73ZM21.2845 73.1113C23.0833 73.1113 24.1966 71.8691 24.1966 69.8477V69.8359C24.1966 67.8086 23.0833 66.5723 21.2845 66.5723C19.4856 66.5723 18.3723 67.8086 18.3723 69.8359V69.8477C18.3723 71.8691 19.4856 73.1113 21.2845 73.1113ZM21.2845 72.209C20.0891 72.209 19.4153 71.3359 19.4153 69.8477V69.8359C19.4153 68.3418 20.0891 67.4746 21.2845 67.4746C22.4798 67.4746 23.1536 68.3418 23.1536 69.8359V69.8477C23.1536 71.3359 22.4798 72.209 21.2845 72.209ZM25.6586 73H26.6781V69.2617C26.6781 68.1543 27.3168 67.4746 28.3246 67.4746C29.3324 67.4746 29.8012 68.0195 29.8012 69.1562V73H30.8207V68.9102C30.8207 67.4102 30.0297 66.5723 28.6117 66.5723C27.6801 66.5723 27.0883 66.9648 26.7719 67.6328H26.6781V66.6836H25.6586V73ZM35.1245 73.1113C36.6128 73.1113 37.5152 72.2676 37.732 71.4121L37.7437 71.3652H36.7241L36.7007 71.418C36.5308 71.7988 36.0034 72.2031 35.148 72.2031C34.023 72.2031 33.3023 71.4414 33.273 70.1348H37.8198V69.7363C37.8198 67.8496 36.7769 66.5723 35.0601 66.5723C33.3433 66.5723 32.23 67.9082 32.23 69.8594V69.8652C32.23 71.8457 33.3198 73.1113 35.1245 73.1113ZM35.0542 67.4805C35.9859 67.4805 36.6773 68.0723 36.7827 69.3203H33.2905C33.4019 68.1191 34.1167 67.4805 35.0542 67.4805ZM44.5994 73H45.6541V64.5449H44.6052L42.3552 66.1621V67.2754L44.5056 65.7168H44.5994V73ZM47.9774 73H53.4501V72.0508H49.4423V71.957L51.3641 69.9707C52.8934 68.3945 53.3095 67.6914 53.3095 66.7246V66.7129C53.3095 65.3477 52.1786 64.3457 50.702 64.3457C49.0848 64.3457 47.9247 65.4238 47.9188 66.9238L47.9305 66.9297L48.9384 66.9355L48.9442 66.9238C48.9442 65.9277 49.618 65.2656 50.6317 65.2656C51.6278 65.2656 52.2313 65.9336 52.2313 66.8242V66.8359C52.2313 67.5742 51.9149 68.0137 50.8368 69.1797L47.9774 72.2734V73Z" fill="#1D1D1F"/>
<defs>
<clipPath id="clip0_2_3327">
<rect width="22" height="54" fill="white" transform="translate(16.25)"/>
</clipPath>
</defs>
</svg>
